<svg width="500" height="385" viewBox="0 0 500 385" fill="none" xmlns="http://www.w3.org/2000/svg">
<path d="M250 384.59C357.083 384.59 443.89 379.522 443.89 373.27C443.89 367.018 357.083 361.95 250 361.95C142.918 361.95 56.1101 367.018 56.1101 373.27C56.1101 379.522 142.918 384.59 250 384.59Z" fill="#F5F5F5"/>
<path d="M238.4 283.53H45.3101C43.7965 283.527 42.3457 282.925 41.2754 281.855C40.2052 280.784 39.6027 279.334 39.6001 277.82V6.38998C39.6159 4.88509 40.2241 3.44706 41.293 2.38757C42.3618 1.32809 43.8051 0.732529 45.3101 0.72998H238.4C239.913 0.73263 241.363 1.33539 242.431 2.40593C243.5 3.47648 244.1 4.92733 244.1 6.43998V277.82C244.1 279.333 243.5 280.783 242.431 281.854C241.363 282.925 239.913 283.527 238.4 283.53ZM45.3101 0.929981C43.8628 0.932625 42.4756 1.50872 41.4522 2.5321C40.4288 3.55547 39.8527 4.94271 39.8501 6.38998V277.82C39.8527 279.267 40.4288 280.654 41.4522 281.678C42.4756 282.701 43.8628 283.277 45.3101 283.28H238.4C239.846 283.277 241.233 282.701 242.254 281.677C243.276 280.654 243.85 279.266 243.85 277.82V6.38998C243.85 4.94363 243.276 3.55637 242.254 2.53271C241.233 1.50905 239.846 0.93263 238.4 0.929981H45.3101Z" fill="#E6E6E6"/>
<path d="M454.7 283.53H261.6C260.087 283.527 258.637 282.925 257.569 281.854C256.5 280.783 255.9 279.333 255.9 277.82V6.38998C255.913 4.88601 256.519 3.44796 257.586 2.3882C258.654 1.32844 260.096 0.732557 261.6 0.72998H454.7C456.204 0.732557 457.646 1.32844 458.713 2.3882C459.781 3.44796 460.387 4.88601 460.4 6.38998V277.82C460.4 279.333 459.8 280.783 458.731 281.854C457.662 282.925 456.213 283.527 454.7 283.53ZM261.6 0.929981C260.154 0.93263 258.767 1.50905 257.746 2.53271C256.724 3.55637 256.15 4.94363 256.15 6.38998V277.82C256.15 279.266 256.724 280.654 257.746 281.677C258.767 282.701 260.154 283.277 261.6 283.28H454.7C456.148 283.277 457.536 282.702 458.561 281.678C459.586 280.655 460.165 279.268 460.17 277.82V6.38998C460.165 4.94179 459.586 3.55458 458.561 2.53148C457.536 1.50839 456.148 0.932614 454.7 0.929981H261.6Z" fill="#E6E6E6"/>
<path d="M85.94 334.21H44.73V334.46H85.94V334.21Z" fill="#E0E0E0"/>
<path d="M169.94 332.21H128.61V332.46H169.94V332.21Z" fill="#E0E0E0"/>
<path d="M223.72 332.21H213.72V332.46H223.72V332.21Z" fill="#E0E0E0"/>
<path d="M123.77 340.75H77.52V341H123.77V340.75Z" fill="#E0E0E0"/>
<path d="M283.74 334.08H262.14V334.33H283.74V334.08Z" fill="#E0E0E0"/>
<path d="M320.57 334.08H292.64V334.33H320.57V334.08Z" fill="#E0E0E0"/>
<path d="M455.27 338.31H392.83V338.56H455.27V338.31Z" fill="#E0E0E0"/>
<path d="M500 324.4H0V324.65H500V324.4Z" fill="#EBEBEB"/>
<path opacity="0.8" d="M334.83 21.48L332.34 55.76C332.255 56.9216 331.763 58.016 330.95 58.85C330.487 59.3441 329.928 59.739 329.307 60.0106C328.687 60.2822 328.017 60.4249 327.34 60.43H299.85C299.25 60.4361 298.654 60.317 298.102 60.0802C297.551 59.8434 297.054 59.4941 296.645 59.0547C296.235 58.6152 295.922 58.0953 295.725 57.528C295.528 56.9607 295.451 56.3586 295.5 55.76L298 21.48C298.102 20.2187 298.671 19.0408 299.596 18.1771C300.521 17.3133 301.735 16.8258 303 16.81H330.49C331.091 16.8006 331.687 16.9176 332.24 17.1535C332.793 17.3893 333.29 17.7387 333.699 18.179C334.109 18.6193 334.421 19.1407 334.616 19.7094C334.81 20.278 334.883 20.8813 334.83 21.48Z" fill="#E0E0E0"/>
<path d="M322.711 38.5272C323.754 33.5431 321.326 28.8177 317.288 27.9726C313.25 27.1276 309.131 30.4829 308.088 35.467C307.045 40.451 309.473 45.1765 313.511 46.0216C317.549 46.8667 321.668 43.5113 322.711 38.5272Z" fill="white"/>
<path d="M326.38 58.07H301.22C299.62 58.07 298.52 57.3 298.48 56.23C298.42 54.67 306.58 47.92 314.32 48.51H314.5C319.255 48.6784 323.816 50.4393 327.45 53.51C331.19 56.45 327.66 58.07 326.38 58.07Z" fill="white"/>
<path d="M193 59.18C190.371 59.1696 187.839 58.1825 185.897 56.4103C183.955 54.6381 182.74 52.2073 182.49 49.59C182.373 48.347 182.517 47.0933 182.911 45.9087C183.305 44.7241 183.941 43.6344 184.779 42.709C185.617 41.7835 186.639 41.0426 187.778 40.5331C188.918 40.0237 190.152 39.757 191.4 39.75C194.029 39.7604 196.561 40.7475 198.503 42.5197C200.445 44.2919 201.659 46.7227 201.91 49.34C202.027 50.583 201.883 51.8367 201.489 53.0213C201.095 54.2059 200.459 55.2956 199.621 56.221C198.783 57.1465 197.761 57.8874 196.622 58.3969C195.482 58.9063 194.248 59.173 193 59.18ZM191.83 44.91C191.244 44.91 190.664 45.0327 190.128 45.2701C189.592 45.5076 189.112 45.8546 188.719 46.2888C188.325 46.723 188.026 47.2348 187.842 47.7913C187.658 48.3478 187.593 48.9367 187.65 49.52C187.773 50.7456 188.344 51.8827 189.254 52.7131C190.164 53.5436 191.348 54.0089 192.58 54.02C193.165 54.0186 193.744 53.8949 194.278 53.6568C194.813 53.4188 195.292 53.0716 195.685 52.6375C196.077 52.2034 196.375 51.6921 196.558 51.1363C196.742 50.5805 196.807 49.9925 196.75 49.41C196.627 48.1895 196.06 47.0565 195.157 46.2268C194.254 45.3971 193.077 44.9284 191.85 44.91H191.83Z" fill="#E0E0E0"/>
<path d="M193.5 44.16L189.82 44.21L187.86 20.49L191.55 20.45L193.5 44.16Z" fill="#E0E0E0"/>
<path d="M195.04 21.51L188.12 21.6L187.82 17.91L194.74 17.82L195.04 21.51Z" fill="#E0E0E0"/>
<path d="M195.44 26.25L188.93 26.33L188.63 22.64L195.13 22.56L195.44 26.25Z" fill="#E0E0E0"/>
<path d="M196 32.93L190.32 33L190.01 29.32L195.69 29.25L196 32.93Z" fill="#E0E0E0"/>
<path d="M79.3101 260.77C79.3313 261.068 79.368 261.365 79.4201 261.66C79.7647 263.578 80.7227 265.333 82.1501 266.66C83.7714 268.199 85.915 269.067 88.1501 269.09H172.64C174.642 269.122 176.576 268.363 178.022 266.977C179.467 265.592 180.308 263.692 180.36 261.69C180.383 260.504 180.17 259.325 179.736 258.221C179.301 257.117 178.652 256.11 177.827 255.258C177.002 254.406 176.016 253.725 174.927 253.255C173.838 252.786 172.666 252.536 171.48 252.52H87.0001C85.9382 252.507 84.8853 252.715 83.9089 253.133C82.9324 253.55 82.054 254.167 81.3299 254.944C80.6059 255.72 80.0522 256.64 79.7043 257.643C79.3565 258.647 79.2222 259.712 79.3101 260.77Z" fill="#F0F0F0"/>
<path d="M180.39 261.66C180.384 261.928 180.357 262.196 180.31 262.46C180.066 260.278 179.033 258.26 177.405 256.786C175.777 255.313 173.666 254.485 171.47 254.46L81.6201 254.6C83.0717 253.209 85.0098 252.441 87.0201 252.46H171.51C172.703 252.451 173.886 252.684 174.987 253.146C176.087 253.607 177.083 254.287 177.913 255.144C178.743 256.001 179.391 257.018 179.817 258.133C180.242 259.248 180.438 260.438 180.39 261.63V261.66Z" fill="#E0E0E0"/>
<path d="M165.93 256.48L166.21 260.48L170 259.07L170.86 261.07L167 262.39L169.7 265.78L168 267.06L165.37 263.54L163.27 267.06L161.4 265.78L163.59 262.39L159.59 261.12L160.16 259.12L164.16 260.48L163.88 256.48H165.93Z" fill="white"/>
<path d="M142.82 256.48L143.11 260.48L146.89 259.07L147.75 261.07L143.88 262.34L146.59 265.73L144.84 267.01L142.21 263.49L140.11 267.01L138.24 265.73L140.43 262.34L136.43 261.07L137.01 259.07L141.01 260.43L140.73 256.43L142.82 256.48Z" fill="white"/>
<path d="M119.72 256.48L120 260.48L123.79 259.07L124.65 261.07L120.78 262.34L123.48 265.73L121.73 267.01L119.1 263.49L117 267.01L115.13 265.73L117.32 262.34L113.32 261.07L113.9 259.07L117.9 260.43L117.62 256.43L119.72 256.48Z" fill="white"/>
<path d="M96.61 256.48L96.89 260.48L100.68 259.07L101.54 261.07L97.67 262.34L100.37 265.73L98.63 267.01L96 263.54L93.89 267.06L92 265.78L94.2 262.39L90.2 261.12L90.78 259.12L94.78 260.48L94.5 256.48H96.61Z" fill="white"/>
<path d="M152.74 249.57H148.8L148.81 248.57H152.75L152.74 249.57Z" fill="#E0E0E0"/>
<path d="M169.67 249.57H156.82L156.84 248.57H169.69L169.67 249.57Z" fill="#E0E0E0"/>
<g opacity="0.8">
<path d="M269.38 244.53L285.32 269.06L337.88 216.5C337.931 216.455 337.973 216.4 338.003 216.338C338.033 216.277 338.05 216.21 338.055 216.142C338.059 216.074 338.049 216.005 338.027 215.941C338.005 215.876 337.97 215.816 337.925 215.765C337.88 215.714 337.825 215.672 337.763 215.642C337.702 215.612 337.635 215.594 337.567 215.59C337.498 215.586 337.43 215.595 337.365 215.618C337.301 215.64 337.241 215.675 337.19 215.72L287.1 255L277.64 239.75L269.38 244.53Z" fill="#008000"/>
</g>
<path opacity="0.1" d="M259.86 69.95L222.12 211.11H234.81L272.13 69.95H259.86Z" fill="white"/>
<path opacity="0.1" d="M279.45 69.95L241.71 211.11H266.89L304.21 69.95H279.45Z" fill="white"/>
<path d="M415.31 197.31L423.31 84.01C423.384 83.1395 423.275 82.2631 422.989 81.4374C422.703 80.6118 422.247 79.8555 421.651 79.2173C421.054 78.5791 420.33 78.0733 419.525 77.7327C418.721 77.3921 417.854 77.2243 416.98 77.24L219.24 77.41C217.401 77.4354 215.636 78.1432 214.289 79.396C212.942 80.6488 212.109 82.3573 211.95 84.19L204 197.5C203.927 198.371 204.038 199.248 204.325 200.073C204.612 200.899 205.069 201.655 205.666 202.293C206.264 202.931 206.988 203.437 207.794 203.777C208.599 204.118 209.466 204.286 210.34 204.27L408 204.1C409.845 204.082 411.617 203.375 412.969 202.12C414.321 200.864 415.156 199.149 415.31 197.31Z" fill="#263238"/>
<path d="M412.77 194.84L420.77 81.54C420.846 80.6692 420.738 79.7921 420.453 78.9657C420.167 78.1394 419.711 77.3824 419.114 76.7439C418.517 76.1054 417.793 75.5996 416.987 75.2595C416.182 74.9195 415.314 74.7527 414.44 74.77L216.7 74.94C214.861 74.9634 213.097 75.6707 211.751 76.9242C210.405 78.1776 209.574 79.8873 209.42 81.72L201.42 195.03C201.346 195.901 201.455 196.777 201.741 197.603C202.027 198.428 202.483 199.185 203.079 199.823C203.676 200.461 204.4 200.967 205.205 201.307C206.009 201.648 206.877 201.816 207.75 201.8L405.48 201.63C407.322 201.607 409.089 200.898 410.436 199.643C411.784 198.388 412.616 196.675 412.77 194.84Z" fill="#1E2772"/>
<path opacity="0.6" d="M407.53 196.52C407.124 196.893 406.592 197.1 406.04 197.1L208.3 197.27C207.983 197.266 207.67 197.199 207.379 197.071C207.089 196.943 206.827 196.757 206.61 196.526C206.394 196.294 206.226 196.021 206.118 195.722C206.009 195.424 205.963 195.107 205.98 194.79L213.98 81.4901C214.011 80.9399 214.255 80.4234 214.66 80.05C215.064 79.6724 215.597 79.4646 216.15 79.47L413.89 79.3C414.208 79.3036 414.521 79.3714 414.811 79.4993C415.102 79.6273 415.363 79.8127 415.58 80.0445C415.797 80.2762 415.964 80.5495 416.073 80.8478C416.181 81.146 416.228 81.4632 416.21 81.78L408.21 195.08C408.174 195.629 407.931 196.144 407.53 196.52Z" fill="white"/>
<path d="M341.76 134.23H272.35C271.738 134.24 271.151 134.472 270.697 134.882C270.243 135.292 269.953 135.853 269.88 136.46L268.81 146.61C268.776 146.892 268.802 147.178 268.888 147.449C268.973 147.72 269.115 147.97 269.304 148.182C269.493 148.394 269.725 148.563 269.985 148.678C270.245 148.794 270.526 148.852 270.81 148.85H340.22C340.834 148.838 341.423 148.604 341.878 148.193C342.334 147.781 342.626 147.219 342.7 146.61L343.76 136.46C343.793 136.179 343.765 135.894 343.679 135.624C343.594 135.354 343.451 135.105 343.262 134.895C343.073 134.684 342.842 134.516 342.583 134.401C342.324 134.286 342.043 134.228 341.76 134.23Z" fill="white"/>
<path d="M280.61 175.68H269.78C269.166 175.692 268.578 175.926 268.122 176.337C267.666 176.749 267.375 177.311 267.3 177.92L266.24 188.07C266.208 188.351 266.235 188.636 266.321 188.906C266.407 189.176 266.549 189.425 266.738 189.635C266.927 189.846 267.159 190.014 267.418 190.129C267.677 190.244 267.957 190.302 268.24 190.3H279.07C279.682 190.288 280.27 190.056 280.725 189.647C281.181 189.237 281.473 188.678 281.55 188.07L282.61 177.92C282.644 177.638 282.618 177.352 282.533 177.081C282.448 176.81 282.306 176.56 282.116 176.348C281.927 176.136 281.695 175.967 281.435 175.852C281.176 175.736 280.894 175.678 280.61 175.68Z" fill="white"/>
<path d="M299.31 175.68H288.48C287.866 175.692 287.278 175.926 286.822 176.337C286.366 176.749 286.075 177.311 286 177.92L284.94 188.07C284.907 188.351 284.935 188.636 285.021 188.906C285.107 189.176 285.249 189.425 285.438 189.635C285.627 189.846 285.859 190.014 286.118 190.129C286.377 190.244 286.657 190.302 286.94 190.3H297.77C298.382 190.288 298.97 190.056 299.425 189.647C299.88 189.237 300.173 188.678 300.25 188.07L301.31 177.92C301.344 177.638 301.318 177.352 301.233 177.081C301.148 176.81 301.006 176.56 300.816 176.348C300.627 176.136 300.395 175.967 300.135 175.852C299.875 175.736 299.594 175.678 299.31 175.68Z" fill="white"/>
<path d="M318 175.68H307.18C306.566 175.692 305.978 175.926 305.522 176.337C305.067 176.749 304.775 177.311 304.7 177.92L303.64 188.07C303.608 188.351 303.635 188.636 303.721 188.906C303.807 189.176 303.949 189.425 304.138 189.635C304.327 189.846 304.559 190.014 304.818 190.129C305.077 190.244 305.357 190.302 305.64 190.3H316.47C317.082 190.288 317.67 190.056 318.125 189.647C318.581 189.237 318.873 188.678 318.95 188.07L320 177.92C320.034 177.638 320.008 177.352 319.923 177.081C319.838 176.81 319.696 176.56 319.507 176.348C319.317 176.136 319.085 175.967 318.825 175.852C318.566 175.736 318.284 175.678 318 175.68Z" fill="white"/>
<path d="M336.71 175.68H325.88C325.266 175.692 324.678 175.926 324.222 176.337C323.767 176.749 323.475 177.311 323.4 177.92L322.34 188.07C322.308 188.351 322.335 188.636 322.421 188.906C322.507 189.176 322.649 189.425 322.838 189.635C323.027 189.846 323.259 190.014 323.518 190.129C323.777 190.244 324.057 190.302 324.34 190.3H335.17C335.782 190.288 336.37 190.056 336.825 189.647C337.281 189.237 337.573 188.678 337.65 188.07L338.71 177.92C338.744 177.638 338.718 177.352 338.633 177.081C338.548 176.81 338.406 176.56 338.217 176.348C338.027 176.136 337.795 175.967 337.535 175.852C337.276 175.736 336.994 175.678 336.71 175.68Z" fill="white"/>
<path d="M324.47 169.27H281.06C280.504 169.283 279.952 169.176 279.441 168.956C278.931 168.736 278.473 168.408 278.101 167.995C277.729 167.582 277.45 167.093 277.284 166.563C277.119 166.032 277.069 165.472 277.14 164.92L277.66 159.92C277.804 158.762 278.361 157.695 279.228 156.915C280.094 156.134 281.214 155.692 282.38 155.67H325.79C326.346 155.658 326.899 155.767 327.409 155.988C327.92 156.209 328.377 156.538 328.749 156.952C329.121 157.366 329.4 157.855 329.565 158.386C329.731 158.917 329.781 159.478 329.71 160.03L329.19 165.03C329.044 166.186 328.486 167.25 327.62 168.029C326.753 168.807 325.635 169.248 324.47 169.27ZM282.38 156.68C281.459 156.701 280.576 157.052 279.892 157.668C279.208 158.285 278.767 159.126 278.65 160.04L278.13 165.04C278.075 165.453 278.11 165.872 278.233 166.27C278.356 166.668 278.564 167.034 278.843 167.343C279.122 167.652 279.464 167.897 279.847 168.061C280.23 168.224 280.644 168.302 281.06 168.29H324.47C325.39 168.271 326.273 167.923 326.957 167.308C327.642 166.693 328.083 165.853 328.2 164.94L328.72 159.94C328.775 159.527 328.74 159.108 328.617 158.71C328.494 158.312 328.286 157.946 328.007 157.637C327.728 157.328 327.386 157.083 327.003 156.919C326.62 156.756 326.206 156.678 325.79 156.69L282.38 156.68Z" fill="#1E2772"/>
<path d="M344.26 113.09H274.85C274.238 113.105 273.652 113.339 273.198 113.75C272.745 114.162 272.454 114.722 272.38 115.33L271.31 125.48C271.278 125.761 271.305 126.046 271.391 126.316C271.477 126.586 271.619 126.835 271.808 127.045C271.997 127.256 272.229 127.424 272.488 127.539C272.747 127.654 273.027 127.712 273.31 127.71H342.71C343.322 127.698 343.91 127.466 344.365 127.057C344.821 126.647 345.113 126.088 345.19 125.48L346.25 115.33C346.284 115.049 346.258 114.764 346.173 114.493C346.089 114.223 345.948 113.974 345.76 113.762C345.572 113.55 345.341 113.381 345.082 113.265C344.824 113.149 344.543 113.089 344.26 113.09Z" fill="white"/>
<path d="M280.79 141.54C280.832 141.226 280.806 140.908 280.713 140.605C280.62 140.303 280.462 140.024 280.251 139.789C280.04 139.553 279.781 139.366 279.491 139.24C279.2 139.114 278.886 139.053 278.57 139.06C277.891 139.076 277.24 139.335 276.735 139.79C276.231 140.245 275.906 140.866 275.82 141.54C275.781 141.853 275.81 142.171 275.905 142.472C276 142.773 276.159 143.05 276.371 143.285C276.582 143.519 276.842 143.705 277.131 143.83C277.421 143.955 277.735 144.017 278.05 144.01C278.727 143.996 279.377 143.739 279.88 143.285C280.383 142.832 280.706 142.212 280.79 141.54Z" fill="#263238"/>
<path d="M288.43 141.54C288.471 141.226 288.443 140.907 288.348 140.605C288.254 140.302 288.096 140.024 287.884 139.789C287.672 139.553 287.412 139.366 287.122 139.24C286.831 139.115 286.517 139.053 286.2 139.06C285.521 139.074 284.871 139.333 284.367 139.789C283.864 140.244 283.542 140.866 283.46 141.54C283.42 141.853 283.447 142.171 283.541 142.472C283.635 142.773 283.793 143.05 284.003 143.285C284.214 143.519 284.473 143.705 284.762 143.83C285.052 143.956 285.365 144.017 285.68 144.01C286.359 143.996 287.009 143.739 287.514 143.286C288.019 142.833 288.344 142.213 288.43 141.54Z" fill="#263238"/>
<path d="M296.06 141.54C296.101 141.226 296.073 140.907 295.978 140.605C295.884 140.302 295.726 140.024 295.514 139.789C295.302 139.553 295.042 139.366 294.752 139.24C294.461 139.115 294.147 139.053 293.83 139.06C293.151 139.074 292.501 139.333 291.997 139.789C291.494 140.244 291.172 140.866 291.09 141.54C291.051 141.853 291.08 142.171 291.175 142.472C291.27 142.773 291.429 143.05 291.641 143.285C291.852 143.519 292.112 143.705 292.401 143.83C292.691 143.955 293.005 144.017 293.32 144.01C293.997 143.996 294.647 143.739 295.15 143.285C295.653 142.832 295.976 142.212 296.06 141.54Z" fill="#263238"/>
<path d="M303.69 141.54C303.732 141.226 303.706 140.908 303.613 140.605C303.52 140.303 303.362 140.024 303.151 139.789C302.94 139.553 302.681 139.366 302.39 139.24C302.1 139.114 301.786 139.053 301.47 139.06C300.791 139.074 300.141 139.333 299.637 139.789C299.134 140.244 298.812 140.866 298.73 141.54C298.689 141.857 298.717 142.178 298.814 142.483C298.911 142.787 299.073 143.066 299.29 143.301C299.506 143.536 299.772 143.72 300.067 143.841C300.363 143.962 300.681 144.016 301 144C301.667 143.975 302.303 143.714 302.796 143.263C303.289 142.813 303.605 142.202 303.69 141.54Z" fill="#263238"/>
<path d="M311.48 141.54C311.521 141.226 311.493 140.907 311.398 140.605C311.304 140.302 311.146 140.024 310.934 139.789C310.722 139.553 310.462 139.366 310.172 139.24C309.881 139.115 309.567 139.053 309.25 139.06C308.571 139.074 307.921 139.333 307.417 139.789C306.914 140.244 306.592 140.866 306.51 141.54C306.47 141.853 306.497 142.171 306.591 142.472C306.685 142.773 306.843 143.05 307.053 143.285C307.264 143.519 307.523 143.705 307.813 143.83C308.102 143.956 308.415 144.017 308.73 144.01C309.409 143.996 310.059 143.739 310.564 143.286C311.069 142.833 311.394 142.213 311.48 141.54Z" fill="#263238"/>
<path d="M283.29 120.4C283.332 120.087 283.306 119.769 283.213 119.467C283.12 119.165 282.962 118.887 282.751 118.652C282.54 118.417 282.28 118.231 281.99 118.106C281.7 117.981 281.386 117.921 281.07 117.93C280.393 117.944 279.743 118.201 279.24 118.655C278.737 119.108 278.414 119.728 278.33 120.4C278.288 120.713 278.314 121.032 278.407 121.333C278.5 121.635 278.658 121.913 278.869 122.148C279.08 122.383 279.34 122.569 279.63 122.694C279.92 122.819 280.234 122.879 280.55 122.87C281.228 122.858 281.879 122.602 282.382 122.148C282.886 121.694 283.208 121.073 283.29 120.4Z" fill="#263238"/>
<path d="M290.93 120.4C290.969 120.087 290.94 119.769 290.845 119.468C290.75 119.167 290.591 118.89 290.38 118.655C290.168 118.421 289.909 118.235 289.619 118.11C289.329 117.985 289.016 117.923 288.7 117.93C288.03 117.953 287.39 118.215 286.895 118.668C286.4 119.12 286.083 119.734 286 120.4C285.96 120.713 285.987 121.031 286.081 121.332C286.175 121.633 286.332 121.91 286.543 122.144C286.754 122.379 287.013 122.565 287.302 122.69C287.592 122.816 287.905 122.877 288.22 122.87C288.892 122.849 289.534 122.588 290.031 122.136C290.528 121.683 290.847 121.067 290.93 120.4Z" fill="#263238"/>
<path d="M298.56 120.4C298.6 120.087 298.573 119.769 298.479 119.468C298.385 119.167 298.228 118.89 298.017 118.656C297.806 118.421 297.547 118.235 297.258 118.11C296.968 117.984 296.655 117.923 296.34 117.93C295.662 117.944 295.011 118.201 294.506 118.654C294.001 119.107 293.676 119.727 293.59 120.4C293.55 120.714 293.577 121.032 293.672 121.334C293.766 121.636 293.925 121.914 294.137 122.148C294.348 122.383 294.609 122.569 294.899 122.694C295.19 122.818 295.504 122.878 295.82 122.87C296.498 122.858 297.149 122.602 297.652 122.148C298.156 121.694 298.478 121.073 298.56 120.4Z" fill="#263238"/>
<path d="M306.19 120.4C306.232 120.087 306.206 119.769 306.113 119.467C306.02 119.165 305.862 118.887 305.651 118.652C305.44 118.417 305.18 118.231 304.89 118.106C304.6 117.981 304.286 117.921 303.97 117.93C303.293 117.944 302.643 118.201 302.14 118.655C301.637 119.108 301.314 119.728 301.23 120.4C301.188 120.713 301.214 121.032 301.308 121.333C301.401 121.635 301.558 121.913 301.769 122.148C301.98 122.383 302.24 122.569 302.53 122.694C302.821 122.819 303.134 122.879 303.45 122.87C304.128 122.858 304.779 122.602 305.282 122.148C305.786 121.694 306.108 121.073 306.19 120.4Z" fill="#263238"/>
<path d="M313.83 120.4C313.869 120.087 313.84 119.769 313.745 119.468C313.65 119.167 313.491 118.89 313.28 118.655C313.068 118.421 312.809 118.235 312.519 118.11C312.229 117.985 311.916 117.923 311.6 117.93C310.923 117.944 310.273 118.201 309.77 118.655C309.267 119.108 308.944 119.728 308.86 120.4C308.82 120.714 308.847 121.032 308.942 121.334C309.036 121.636 309.195 121.914 309.407 122.148C309.618 122.383 309.879 122.569 310.169 122.694C310.46 122.818 310.774 122.878 311.09 122.87C311.768 122.858 312.419 122.602 312.922 122.148C313.426 121.694 313.748 121.073 313.83 120.4Z" fill="#263238"/>
<path d="M321.46 120.4C321.5 120.087 321.473 119.769 321.379 119.468C321.285 119.167 321.128 118.89 320.917 118.656C320.706 118.421 320.447 118.235 320.158 118.11C319.868 117.984 319.555 117.923 319.24 117.93C318.562 117.944 317.911 118.201 317.406 118.654C316.901 119.107 316.576 119.727 316.49 120.4C316.449 120.714 316.477 121.032 316.572 121.334C316.666 121.636 316.825 121.914 317.036 122.148C317.248 122.383 317.509 122.569 317.799 122.694C318.09 122.818 318.404 122.878 318.72 122.87C319.398 122.858 320.049 122.602 320.552 122.148C321.056 121.694 321.378 121.073 321.46 120.4Z" fill="#263238"/>
<path d="M315 90.71L314.46 95.84C314.422 96.0632 314.309 96.2669 314.14 96.4176C313.971 96.5684 313.756 96.6574 313.53 96.67C313.423 96.674 313.317 96.6545 313.219 96.613C313.121 96.5715 313.033 96.509 312.961 96.4299C312.89 96.3508 312.837 96.257 312.805 96.1551C312.774 96.0532 312.765 95.9456 312.78 95.84L313.32 90.71C313.367 90.3302 313.333 89.9446 313.218 89.5794C313.103 89.2142 312.911 88.8779 312.655 88.5934C312.399 88.3089 312.085 88.0827 311.734 87.9303C311.383 87.7779 311.003 87.7028 310.62 87.71H308.77C307.948 87.7296 307.16 88.0429 306.549 88.5933C305.939 89.1436 305.545 89.8945 305.44 90.71L304.97 95.47H303.29L303.76 90.71C303.919 89.4375 304.531 88.2647 305.484 87.407C306.437 86.5492 307.668 86.0639 308.95 86.04H310.79C311.387 86.025 311.98 86.1393 312.529 86.3752C313.078 86.6111 313.569 86.963 313.969 87.4066C314.369 87.8503 314.668 88.3753 314.846 88.9455C315.024 89.5157 315.077 90.1176 315 90.71Z" fill="#1E2772"/>
<path d="M315 95.65L313.95 105.65C313.909 105.96 313.759 106.246 313.526 106.455C313.293 106.664 312.993 106.783 312.68 106.79H302.68C302.536 106.791 302.393 106.762 302.262 106.703C302.131 106.644 302.013 106.558 301.918 106.45C301.823 106.341 301.753 106.214 301.712 106.076C301.671 105.938 301.66 105.793 301.68 105.65L302.73 95.65C302.75 95.4445 302.818 95.2466 302.929 95.0727C303.04 94.8988 303.192 94.7539 303.37 94.65C303.561 94.5381 303.779 94.4794 304 94.48H314C314.205 94.4779 314.406 94.5333 314.58 94.64C314.741 94.7494 314.866 94.9031 314.94 95.0825C315.015 95.2619 315.036 95.4591 315 95.65Z" fill="#1E2772"/>
<path d="M368.87 74.75C368.738 74.75 368.61 74.6973 368.517 74.6035C368.423 74.5098 368.37 74.3826 368.37 74.25C368.37 74.1174 368.423 73.9902 368.517 73.8964C368.61 73.8027 368.738 73.75 368.87 73.75L393.31 73.61C393.443 73.61 393.57 73.6627 393.664 73.7564C393.757 73.8502 393.81 73.9774 393.81 74.11C393.81 74.2426 393.757 74.3698 393.664 74.4635C393.57 74.5573 393.443 74.61 393.31 74.61L368.88 74.75H368.87Z" fill="#263238"/>
<path d="M398 74.58C397.867 74.58 397.74 74.5273 397.646 74.4336C397.553 74.3398 397.5 74.2126 397.5 74.08C397.5 73.9474 397.553 73.8202 397.646 73.7265C397.74 73.6327 397.867 73.58 398 73.58H406.64C406.773 73.58 406.9 73.6327 406.994 73.7265C407.087 73.8202 407.14 73.9474 407.14 74.08C407.14 74.2126 407.087 74.3398 406.994 74.4336C406.9 74.5273 406.773 74.58 406.64 74.58H398Z" fill="#263238"/>
<g opacity="0.3">
<path d="M235.1 79.44H263.1L234.63 197.27H212.06C211.409 197.257 210.769 197.097 210.188 196.802C209.608 196.507 209.101 196.085 208.707 195.566C208.313 195.048 208.041 194.447 207.911 193.809C207.782 193.17 207.799 192.511 207.96 191.88L235.1 79.44Z" fill="white"/>
<path d="M275.5 79.44H287.37L258.93 197.27H247.06L275.5 79.44Z" fill="white"/>
</g>
<path d="M86.6499 42.66H92.3299C90.9992 42.6411 89.6793 42.9013 88.4555 43.424C87.2316 43.9467 86.1309 44.7201 85.2244 45.6944C84.318 46.6688 83.6258 47.8223 83.1927 49.0806C82.7596 50.339 82.5951 51.6742 82.7099 53L94.7599 225.3C94.9883 228.09 96.2477 230.695 98.2925 232.606C100.337 234.518 103.021 235.6 105.82 235.64H100.15C97.3498 235.6 94.6651 234.519 92.6186 232.607C90.5722 230.696 89.3107 228.091 89.0799 225.3L76.9999 53C76.8848 51.6716 77.0501 50.3339 77.485 49.0734C77.9199 47.813 78.6147 46.6579 79.5245 45.6831C80.4342 44.7083 81.5386 43.9355 82.7661 43.4147C83.9935 42.894 85.3167 42.6368 86.6499 42.66Z" fill="#1E2772"/>
<path d="M86.65 42.66H92.33C90.9994 42.6411 89.6795 42.9013 88.4556 43.424C87.2318 43.9467 86.1311 44.7201 85.2246 45.6944C84.3181 46.6688 83.626 47.8223 83.1929 49.0807C82.7597 50.339 82.5953 51.6742 82.71 53L94.76 225.3C94.9884 228.09 96.2479 230.695 98.2927 232.606C100.337 234.518 103.021 235.6 105.82 235.64H100.15C94.44 235.64 88.68 231.01 88.28 225.3L76.23 53C75.83 47.29 80.94 42.66 86.65 42.66Z" fill="#263238"/>
<path d="M101.84 235.65H171.34C172.674 235.675 173.998 235.419 175.227 234.898C176.456 234.378 177.561 233.606 178.472 232.631C179.383 231.656 180.079 230.5 180.514 229.239C180.95 227.978 181.115 226.639 181 225.31L168.91 53C168.684 50.2066 167.424 47.598 165.377 45.684C163.33 43.77 160.642 42.6882 157.84 42.65H88.3499C87.0184 42.631 85.6976 42.8915 84.473 43.4147C83.2484 43.938 82.1472 44.7124 81.2405 45.6878C80.3339 46.6632 79.642 47.818 79.2095 49.0776C78.7771 50.3371 78.6137 51.6734 78.7299 53L90.7299 225.3C90.9591 228.099 92.2252 230.712 94.2803 232.627C96.3354 234.541 99.0314 235.619 101.84 235.65Z" fill="#1E2772"/>
<g opacity="0.6">
<path d="M157.66 46C159.607 46.0308 161.473 46.785 162.894 48.116C164.316 49.4469 165.191 51.2592 165.35 53.2L177.4 225.5C177.482 226.379 177.377 227.266 177.092 228.102C176.808 228.938 176.35 229.704 175.748 230.351C175.147 230.998 174.416 231.51 173.603 231.855C172.79 232.199 171.913 232.368 171.03 232.35H101.54C99.5918 232.319 97.7247 231.566 96.3015 230.235C94.8784 228.904 94.001 227.092 93.8399 225.15L81.8399 52.85C81.7586 51.9749 81.8621 51.0926 82.1437 50.2601C82.4253 49.4277 82.8788 48.6637 83.4747 48.0178C84.0707 47.3719 84.7957 46.8585 85.6028 46.5109C86.41 46.1633 87.2812 45.9892 88.1599 46H157.66Z" fill="white"/>
</g>
<g opacity="0.3">
<path d="M138 232.33H110.31L133.17 46H155.48C156.443 45.9964 157.397 46.1917 158.281 46.5737C159.166 46.9557 159.962 47.5162 160.62 48.22L138 232.33Z" fill="white"/>
<path d="M105.34 232.33H99.0999L121.96 45.98H128.2L105.34 232.33Z" fill="white"/>
</g>
<path d="M153.52 127.9H103.18C103.047 127.9 102.92 127.847 102.826 127.754C102.733 127.66 102.68 127.533 102.68 127.4C102.68 127.267 102.733 127.14 102.826 127.046C102.92 126.953 103.047 126.9 103.18 126.9H153.52C153.652 126.903 153.777 126.956 153.871 127.049C153.964 127.143 154.017 127.268 154.02 127.4C154.02 127.533 153.967 127.66 153.873 127.754C153.78 127.847 153.653 127.9 153.52 127.9Z" fill="white"/>
<path d="M149.1 135.35H109.67C109.537 135.35 109.41 135.297 109.316 135.204C109.223 135.11 109.17 134.983 109.17 134.85C109.17 134.717 109.223 134.59 109.316 134.496C109.41 134.403 109.537 134.35 109.67 134.35H149.1C149.233 134.35 149.36 134.403 149.453 134.496C149.547 134.59 149.6 134.717 149.6 134.85C149.6 134.983 149.547 135.11 149.453 135.204C149.36 135.297 149.233 135.35 149.1 135.35Z" fill="white"/>
<path d="M104.68 93.08L104.75 95.08H103.46L103.39 93.08L101.1 89.49H102.47L104.05 91.97L105.45 89.49H106.72L104.68 93.08Z" fill="#1E2772"/>
<path d="M106.77 92.26C106.753 91.8669 106.82 91.4747 106.966 91.1095C107.113 90.7443 107.335 90.4145 107.619 90.142C107.903 89.8695 108.241 89.6606 108.612 89.5292C108.983 89.3979 109.378 89.347 109.77 89.38C110.166 89.3599 110.563 89.4186 110.937 89.5529C111.31 89.6871 111.653 89.8942 111.946 90.1621C112.239 90.43 112.476 90.7533 112.644 91.1135C112.811 91.4736 112.905 91.8633 112.92 92.26C112.938 92.6539 112.873 93.0472 112.727 93.4137C112.581 93.7801 112.359 94.1112 112.075 94.3848C111.791 94.6583 111.452 94.8681 111.08 95.0001C110.708 95.1321 110.313 95.1832 109.92 95.15C109.523 95.1702 109.125 95.1111 108.751 94.9762C108.377 94.8413 108.033 94.6334 107.74 94.3645C107.447 94.0955 107.21 93.771 107.044 93.4097C106.877 93.0484 106.784 92.6576 106.77 92.26ZM111.57 92.26C111.571 92.0233 111.525 91.7888 111.434 91.5702C111.344 91.3516 111.21 91.1535 111.041 90.9876C110.872 90.8216 110.672 90.6912 110.452 90.604C110.232 90.5168 109.997 90.4747 109.76 90.48C109.528 90.4703 109.297 90.5104 109.082 90.5979C108.867 90.6853 108.673 90.8179 108.514 90.9867C108.354 91.1554 108.233 91.3565 108.158 91.5762C108.084 91.7959 108.057 92.0291 108.08 92.26C108.077 92.4975 108.122 92.7332 108.213 92.9529C108.303 93.1726 108.436 93.372 108.605 93.539C108.774 93.706 108.975 93.8373 109.196 93.9251C109.416 94.0129 109.652 94.0554 109.89 94.05C110.122 94.0567 110.353 94.014 110.567 93.9249C110.781 93.8358 110.974 93.7022 111.133 93.533C111.291 93.3638 111.413 93.1629 111.488 92.9434C111.563 92.724 111.591 92.4911 111.57 92.26Z" fill="#1E2772"/>
<path d="M113.81 92.6L113.71 89.47H115L115.1 92.55C115.1 93.61 115.62 94.05 116.4 94.05C117.18 94.05 117.62 93.61 117.59 92.55L117.48 89.47H118.75L118.86 92.6C118.913 92.9364 118.887 93.2804 118.785 93.6054C118.684 93.9304 118.509 94.2276 118.274 94.4742C118.039 94.7207 117.75 94.9098 117.431 95.027C117.111 95.1442 116.769 95.1863 116.43 95.15C116.084 95.1809 115.736 95.1368 115.409 95.0205C115.081 94.9043 114.783 94.7188 114.534 94.4766C114.286 94.2345 114.092 93.9414 113.967 93.6175C113.842 93.2936 113.788 92.9465 113.81 92.6Z" fill="#1E2772"/>
<path d="M123.78 95.06L122.65 93.5H121.46L121.52 95.06H120.23L120.03 89.47H122.45C123.94 89.47 124.9 90.25 124.94 91.47C124.972 91.8417 124.884 92.2139 124.687 92.531C124.491 92.8482 124.197 93.0934 123.85 93.23L125.17 95.03L123.78 95.06ZM122.41 90.53H121.41L121.48 92.47H122.48C123.27 92.47 123.65 92.11 123.63 91.47C123.61 90.83 123.2 90.53 122.41 90.53Z" fill="#1E2772"/>
<path d="M127.9 92.26C127.879 91.8729 127.941 91.4859 128.081 91.1244C128.221 90.7629 128.436 90.4353 128.712 90.1631C128.988 89.8909 129.319 89.6803 129.682 89.5453C130.045 89.4103 130.433 89.354 130.82 89.38C131.258 89.3665 131.693 89.449 132.096 89.6218C132.498 89.7945 132.858 90.0533 133.15 90.38L132.35 91.14C132.173 90.9344 131.953 90.7698 131.706 90.6576C131.46 90.5454 131.191 90.4882 130.92 90.49C130.686 90.4777 130.451 90.5158 130.233 90.6017C130.015 90.6876 129.817 90.8194 129.654 90.9881C129.491 91.1569 129.366 91.3586 129.288 91.5797C129.21 91.8009 129.18 92.0363 129.2 92.27C129.198 92.5106 129.246 92.749 129.339 92.9709C129.432 93.1927 129.569 93.3933 129.742 93.5606C129.915 93.7279 130.12 93.8584 130.345 93.9443C130.57 94.0301 130.809 94.0695 131.05 94.06C131.315 94.0655 131.579 94.0086 131.818 93.894C132.058 93.7794 132.267 93.6102 132.43 93.4L133.28 94.16C133.008 94.4921 132.662 94.7556 132.269 94.9293C131.876 95.103 131.449 95.182 131.02 95.16C130.624 95.1761 130.229 95.1136 129.858 94.9763C129.486 94.839 129.146 94.6295 128.856 94.3599C128.566 94.0903 128.332 93.7659 128.168 93.4055C128.004 93.0451 127.913 92.6558 127.9 92.26Z" fill="#1E2772"/>
<path d="M133.62 92.26C133.604 91.8714 133.669 91.4838 133.813 91.1223C133.956 90.7608 134.174 90.4336 134.452 90.1619C134.731 89.8903 135.063 89.6802 135.428 89.5455C135.793 89.4108 136.182 89.3544 136.57 89.38C136.966 89.3599 137.363 89.4186 137.737 89.5528C138.11 89.6871 138.453 89.8942 138.746 90.1621C139.039 90.4299 139.276 90.7533 139.443 91.1135C139.611 91.4736 139.704 91.8633 139.72 92.26C139.738 92.6494 139.673 93.0381 139.53 93.4008C139.387 93.7635 139.17 94.092 138.891 94.3647C138.613 94.6375 138.28 94.8485 137.914 94.9838C137.549 95.1191 137.159 95.1757 136.77 95.15C136.373 95.1701 135.975 95.1111 135.601 94.9762C135.227 94.8413 134.883 94.6334 134.59 94.3644C134.297 94.0955 134.06 93.7709 133.893 93.4097C133.727 93.0484 133.634 92.6576 133.62 92.26ZM138.41 92.26C138.413 92.0238 138.368 91.7895 138.278 91.5709C138.188 91.3524 138.055 91.1542 137.888 90.9881C137.72 90.822 137.52 90.6914 137.3 90.6041C137.081 90.5168 136.846 90.4746 136.61 90.48C136.378 90.4702 136.147 90.5104 135.932 90.5978C135.717 90.6852 135.523 90.8178 135.364 90.9866C135.204 91.1554 135.083 91.3565 135.008 91.5762C134.934 91.7959 134.907 92.0291 134.93 92.26C134.926 92.497 134.97 92.7325 135.059 92.9522C135.148 93.1719 135.28 93.3713 135.449 93.5384C135.617 93.7056 135.817 93.8371 136.037 93.925C136.257 94.0129 136.493 94.0554 136.73 94.05C136.962 94.0583 137.194 94.0167 137.409 93.9282C137.624 93.8396 137.817 93.7061 137.976 93.5365C138.135 93.367 138.257 93.1653 138.331 92.9452C138.406 92.725 138.433 92.4914 138.41 92.26Z" fill="#1E2772"/>
<path d="M140.6 89.47H143.13C143.524 89.4315 143.922 89.4743 144.299 89.5959C144.675 89.7175 145.023 89.9153 145.321 90.1769C145.618 90.4385 145.858 90.7584 146.027 91.1167C146.195 91.4751 146.288 91.8642 146.3 92.26C146.322 92.651 146.258 93.042 146.112 93.4054C145.966 93.7689 145.742 94.0958 145.456 94.3629C145.17 94.6301 144.828 94.8311 144.455 94.9515C144.083 95.072 143.688 95.109 143.3 95.06H140.76L140.6 89.47ZM143.23 94C143.466 94.0245 143.704 93.9965 143.928 93.9182C144.152 93.8398 144.355 93.713 144.524 93.5467C144.694 93.3805 144.824 93.179 144.906 92.9565C144.988 92.7341 145.02 92.4963 145 92.26C144.999 92.0192 144.949 91.781 144.852 91.5607C144.754 91.3404 144.612 91.1427 144.435 90.98C144.257 90.8174 144.048 90.6935 143.82 90.616C143.591 90.5385 143.35 90.5093 143.11 90.53H141.93L142.05 94H143.23Z" fill="#1E2772"/>
<path d="M151.66 94V95H147.34L147.14 89.41H151.36V90.41H148.5V91.62H151.09V92.62H148.5V93.91L151.66 94Z" fill="#1E2772"/>
<path d="M114.38 115.81V118.05H103.89V116.28L109.47 110.89C110.83 109.56 111.06 108.73 111.05 107.89C111.05 106.59 110.11 105.83 108.36 105.83C107.728 105.798 107.098 105.917 106.521 106.176C105.944 106.435 105.436 106.827 105.04 107.32L103.16 105.89C103.806 105.099 104.631 104.473 105.566 104.063C106.501 103.653 107.52 103.47 108.54 103.53C111.64 103.53 113.67 105.1 113.71 107.63C113.71 109.01 113.37 110.28 111.43 112.14L107.68 115.77L114.38 115.81Z" fill="#263238"/>
<path d="M126 113.77C126 116.17 124.26 118.25 120.43 118.25C118.501 118.284 116.61 117.707 115.03 116.6L116.14 114.54C117.345 115.47 118.828 115.967 120.35 115.95C122.24 115.95 123.35 115.11 123.35 113.79C123.35 112.47 122.35 111.66 120.21 111.66H118.91V109.85L122 106H115.51V103.78H125.25V105.56L121.85 109.68C124.58 110 126 111.62 126 113.77Z" fill="#263238"/>
<path d="M139.34 114C139.34 116.65 137.11 118.3 133.56 118.3C130.01 118.3 127.71 116.65 127.67 114C127.64 113.271 127.838 112.552 128.235 111.94C128.633 111.329 129.212 110.857 129.89 110.59C129.336 110.309 128.872 109.88 128.549 109.35C128.225 108.82 128.056 108.211 128.06 107.59C128.06 105.14 130.14 103.59 133.3 103.59C136.46 103.59 138.67 105.12 138.71 107.59C138.741 108.207 138.591 108.82 138.278 109.353C137.965 109.886 137.504 110.316 136.95 110.59C137.645 110.852 138.246 111.317 138.672 111.926C139.098 112.534 139.331 113.257 139.34 114ZM136.66 113.92C136.66 112.51 135.4 111.63 133.44 111.63C131.48 111.63 130.31 112.51 130.34 113.92C130.37 115.33 131.56 116.22 133.52 116.22C135.48 116.22 136.69 115.32 136.66 113.87V113.92ZM130.66 107.72C130.66 108.94 131.66 109.72 133.39 109.72C135.12 109.72 136.11 108.94 136.08 107.72C136.05 106.5 134.95 105.72 133.31 105.72C131.67 105.72 130.66 106.38 130.68 107.67L130.66 107.72Z" fill="#263238"/>
<path d="M152.64 114C152.64 116.65 150.41 118.3 146.86 118.3C143.31 118.3 141 116.6 141 114C140.971 113.272 141.17 112.553 141.567 111.942C141.965 111.331 142.542 110.859 143.22 110.59C142.666 110.311 142.202 109.881 141.88 109.351C141.558 108.821 141.392 108.21 141.4 107.59C141.35 105.14 143.47 103.59 146.63 103.59C149.79 103.59 152 105.12 152.04 107.59C152.071 108.207 151.921 108.82 151.608 109.353C151.296 109.886 150.834 110.316 150.28 110.59C150.97 110.856 151.564 111.324 151.984 111.932C152.405 112.54 152.634 113.261 152.64 114ZM149.96 113.92C149.96 112.51 148.7 111.63 146.74 111.63C144.78 111.63 143.61 112.51 143.64 113.92C143.67 115.33 144.86 116.22 146.82 116.22C148.78 116.22 150 115.32 150 113.87L149.96 113.92ZM143.96 107.72C143.96 108.94 145.01 109.72 146.69 109.72C148.37 109.72 149.41 108.94 149.39 107.72C149.37 106.5 148.25 105.72 146.62 105.72C144.99 105.72 144 106.38 144 107.67L143.96 107.72Z" fill="#263238"/>
<path d="M78.49 92.31C78.3624 92.3102 78.2396 92.2617 78.1466 92.1743C78.0537 92.0869 77.9976 91.9673 77.99 91.84L76.22 67.67C76.2117 67.539 76.2553 67.4099 76.3414 67.3107C76.4275 67.2116 76.5491 67.1502 76.68 67.14C76.8121 67.1316 76.9423 67.1749 77.0431 67.2607C77.1438 67.3466 77.2073 67.4682 77.22 67.6L79 91.77C79.0055 91.8357 78.9979 91.9018 78.9777 91.9646C78.9575 92.0274 78.9251 92.0855 78.8823 92.1357C78.8396 92.1859 78.7873 92.2271 78.7286 92.257C78.6698 92.287 78.6057 92.305 78.54 92.31H78.49Z" fill="#1E2772"/>
<path d="M76.3799 63.5C76.2539 63.5004 76.1325 63.4533 76.0398 63.368C75.9471 63.2827 75.89 63.1656 75.8799 63.04L75.4099 56.66C75.4053 56.5943 75.4137 56.5284 75.4346 56.466C75.4555 56.4036 75.4884 56.3459 75.5316 56.2962C75.6188 56.1959 75.7423 56.1343 75.8749 56.125C76.0075 56.1157 76.1384 56.1595 76.2387 56.2467C76.3391 56.3339 76.4006 56.4574 76.4099 56.59L76.8799 62.97C76.8882 63.1011 76.8446 63.2301 76.7585 63.3293C76.6724 63.4284 76.5508 63.4898 76.4199 63.5H76.3799Z" fill="#1E2772"/>
<path d="M123.37 33.09C123.237 33.09 123.11 33.0373 123.016 32.9436C122.923 32.8498 122.87 32.7226 122.87 32.59V17.88C122.87 17.7474 122.923 17.6202 123.016 17.5265C123.11 17.4327 123.237 17.38 123.37 17.38C123.502 17.38 123.63 17.4327 123.723 17.5265C123.817 17.6202 123.87 17.7474 123.87 17.88V32.59C123.87 32.7226 123.817 32.8498 123.723 32.9436C123.63 33.0373 123.502 33.09 123.37 33.09Z" fill="#1E2772"/>
<path d="M111.72 36.21C111.633 36.2095 111.547 36.1861 111.472 36.1422C111.396 36.0984 111.334 36.0356 111.29 35.96L103.93 23.22C103.864 23.1046 103.846 22.9676 103.881 22.8392C103.915 22.7107 104 22.6013 104.115 22.535C104.23 22.4687 104.367 22.4509 104.496 22.4856C104.624 22.5203 104.734 22.6046 104.8 22.72L112.15 35.46C112.184 35.5162 112.206 35.5786 112.215 35.6436C112.225 35.7085 112.221 35.7746 112.204 35.8381C112.187 35.9015 112.158 35.9609 112.118 36.0127C112.077 36.0646 112.027 36.1079 111.97 36.14C111.893 36.1829 111.808 36.2069 111.72 36.21Z" fill="#1E2772"/>
<path d="M135 36.21C134.913 36.2104 134.827 36.1898 134.75 36.15C134.636 36.0813 134.553 35.9706 134.519 35.8417C134.486 35.7127 134.504 35.5757 134.57 35.46L141.92 22.72C141.986 22.6046 142.096 22.5203 142.224 22.4856C142.352 22.4509 142.489 22.4687 142.605 22.535C142.72 22.6013 142.805 22.7107 142.839 22.8392C142.874 22.9676 142.856 23.1046 142.79 23.22L135.45 36C135.4 36.0711 135.332 36.128 135.253 36.1648C135.174 36.2016 135.087 36.2172 135 36.21Z" fill="#1E2772"/>
<path d="M159.41 355.84L167.55 359.13L174.66 340.32L166.51 337.03L159.41 355.84Z" fill="#FFB573"/>
<path d="M168.58 358.46L159.44 354.77C159.284 354.702 159.109 354.693 158.947 354.744C158.785 354.796 158.648 354.904 158.56 355.05L154.56 361.75C154.465 361.922 154.409 362.113 154.394 362.309C154.379 362.504 154.406 362.701 154.473 362.886C154.54 363.07 154.646 363.239 154.784 363.379C154.921 363.519 155.087 363.629 155.27 363.7C158.49 364.94 160.1 365.37 164.12 367C166.6 368 170.12 369.71 173.52 371.1C176.92 372.49 178.52 369.23 177.21 368.35C171.4 364.42 171.21 362.15 169.76 359.51C169.502 359.033 169.084 358.661 168.58 358.46Z" fill="#1E2772"/>
<path d="M188.71 131.83C185.84 140.14 177.35 159.7 170.8 151.55C169.621 150.11 168.658 148.507 167.94 146.79C165.17 139.94 164.48 128.84 164.13 126.41L161.9 118.8C161.861 118.67 161.84 118.536 161.84 118.4V114.05C161.84 112.29 163.26 111.24 165.18 111.4C165.18 111.4 168.28 111.04 168.28 112.89L168.88 119.42C169.19 121.69 168.29 124.85 168.82 126.93C170.82 134.76 173.57 135.12 175.3 143.2C177.71 137.37 182.02 127.28 182.02 127.28C184.88 127.64 189.65 129.1 188.71 131.83Z" fill="#FFB573"/>
<path d="M178.45 154.53C178 155.232 177.387 155.814 176.662 156.226C175.938 156.638 175.124 156.868 174.291 156.897C173.458 156.925 172.631 156.751 171.88 156.39C171.129 156.028 170.477 155.489 169.98 154.82C168.795 153.245 167.863 151.494 167.22 149.63C164.62 141.1 163.01 135.82 162.79 126.91C163.711 125.979 164.876 125.325 166.15 125.023C167.425 124.72 168.759 124.782 170 125.2L174.26 139.63C174.26 139.63 182.93 118.08 186.44 117.31C190.57 116.4 192.29 120.09 194.04 124.63C195.3 127.89 184.1 145.82 178.45 154.53Z" fill="#1E2772"/>
<path d="M213.48 95.74C212.48 100.74 210.3 111.66 213.8 115C213.8 115 212.43 120.07 203.14 120.07C192.91 120.07 198.25 115 198.25 115C203.83 113.67 203.68 109.53 202.71 105.64L213.48 95.74Z" fill="#FFB573"/>
<path d="M197.85 84C197.91 84.0093 197.97 84.0093 198.03 84C198.122 83.9491 198.191 83.8646 198.223 83.764C198.255 83.6635 198.246 83.5546 198.2 83.46C197.933 82.8855 197.53 82.3843 197.027 81.9994C196.523 81.6145 195.934 81.3573 195.31 81.25C195.258 81.243 195.205 81.2466 195.154 81.2606C195.104 81.2746 195.056 81.2986 195.015 81.3313C194.974 81.364 194.94 81.4046 194.915 81.4508C194.89 81.497 194.875 81.5477 194.87 81.6C194.863 81.652 194.867 81.7049 194.881 81.7555C194.895 81.8061 194.919 81.8534 194.951 81.8945C194.984 81.9356 195.025 81.9696 195.071 81.9946C195.117 82.0196 195.168 82.035 195.22 82.04C195.712 82.136 196.174 82.3474 196.569 82.6568C196.964 82.9662 197.279 83.3649 197.49 83.82C197.529 83.8791 197.582 83.9269 197.646 83.9585C197.709 83.9902 197.779 84.0045 197.85 84Z" fill="#263238"/>
<path d="M194.8 88.32C194.008 89.7822 193.019 91.1282 191.86 92.32C192.174 92.6078 192.547 92.8239 192.952 92.9534C193.358 93.0829 193.787 93.1227 194.21 93.07L194.8 88.32Z" fill="#ED893E"/>
<path d="M195.6 86.86C195.75 87.52 195.51 88.14 195.08 88.23C194.65 88.32 194.17 87.86 194.03 87.23C193.89 86.6 194.12 85.95 194.56 85.85C195 85.75 195.46 86.19 195.6 86.86Z" fill="#263238"/>
<path d="M194.76 85.82L193.06 85.7C193.06 85.7 194.15 86.77 194.76 85.82Z" fill="#263238"/>
<path opacity="0.2" d="M188.35 127.57C190.12 125.94 191.35 126.43 192.13 127.72C192.94 131.46 188.13 139.3 186.24 142.27L188.35 127.57Z" fill="black"/>
<path d="M229.3 132.5C229.07 136.62 228.68 141.81 228.05 148.34C227.39 155.23 226.45 163.6 225.16 173.77C211.57 173.77 197.34 173.56 190.73 173.56C191.29 160.05 191.49 146.36 185.43 119.48C185.354 119.147 185.346 118.802 185.406 118.465C185.466 118.129 185.593 117.808 185.78 117.521C185.966 117.235 186.208 116.989 186.492 116.798C186.775 116.607 187.094 116.475 187.43 116.41C191.38 115.694 195.371 115.223 199.38 115C204.557 114.63 209.753 114.63 214.93 115C221.6 115.61 229.18 117.16 229.18 117.16C229.18 117.16 230 119.64 229.3 132.5Z" fill="#1E2772"/>
<path opacity="0.2" d="M229.3 132.5C229.07 136.62 228.68 141.81 228.05 148.34C224.39 144.1 220.93 129.5 222.05 124.51C224.778 126.528 227.177 128.957 229.16 131.71C229.221 131.971 229.268 132.234 229.3 132.5Z" fill="black"/>
<path d="M264.59 150.8L271.59 146.88L272.89 154.01C272.89 154.01 266.99 156.28 263.89 154.69L264.59 150.8Z" fill="#FFB573"/>
<path d="M276.22 147.69L276.71 150.02C276.782 150.377 276.747 150.748 276.61 151.086C276.474 151.423 276.24 151.714 275.94 151.92L272.86 154L271.56 146.87L273.97 146.27C274.211 146.21 274.462 146.199 274.708 146.238C274.953 146.278 275.188 146.366 275.399 146.499C275.609 146.632 275.79 146.806 275.931 147.01C276.073 147.215 276.171 147.446 276.22 147.69Z" fill="#FFB573"/>
<path d="M222.6 125.42C224.83 129.96 233.01 147.11 236.6 151.07L237.31 151.81L237.66 152.18C237.78 152.3 237.88 152.41 238.07 152.58C238.715 153.193 239.426 153.733 240.19 154.19C241.554 154.978 243.022 155.57 244.55 155.95C247.23 156.572 249.981 156.831 252.73 156.72C257.852 156.515 262.927 155.655 267.83 154.16L267 150C264.69 150.2 262.27 150.34 259.93 150.38C257.611 150.448 255.29 150.375 252.98 150.16C250.838 150.006 248.723 149.593 246.68 148.93C245.855 148.653 245.074 148.259 244.36 147.76C244.087 147.568 243.835 147.347 243.61 147.1C243.531 147.018 243.458 146.931 243.39 146.84L243.13 146.53L242.6 145.91C239.84 142.45 232.55 125.77 230.36 121.6L222.6 125.42Z" fill="#FFB573"/>
<path d="M264.48 157.9C258.717 160.963 251.975 161.617 245.73 159.72C239.773 157.804 234.748 153.731 231.64 148.3C228.03 142.99 218.42 127.97 219.64 124.09C221.07 119.45 224.11 116.57 229.19 117.82C232.76 118.68 239.57 136.02 242.87 142.95C244.16 144.88 246.64 147.95 249.41 148.89C254.3 150.58 257.9 149.89 263.02 149.12C263.96 149.68 263.89 150.55 264.36 151.52C264.865 152.504 265.138 153.59 265.159 154.696C265.179 155.802 264.947 156.898 264.48 157.9Z" fill="#1E2772"/>
<path d="M218.52 87.73C216.99 95.95 216.52 99.46 211.8 103.2C204.72 108.82 194.95 105.14 194 96.62C193.14 88.95 195.79 76.79 204.31 74.5C206.186 73.9852 208.163 73.9586 210.052 74.4229C211.941 74.8871 213.68 75.8267 215.104 77.1523C216.528 78.478 217.589 80.1458 218.187 81.9971C218.785 83.8485 218.9 85.8219 218.52 87.73Z" fill="#FFB573"/>
<path d="M247.7 133.24C246.13 135.03 245.64 136.07 243.45 137.04C241.26 138.01 236.52 137.16 235.01 135.31C235.5 136.75 238.36 139.31 239.86 139.54C238.167 140.468 236.208 140.792 234.307 140.458C232.405 140.123 230.674 139.15 229.4 137.7C229.609 138.602 230.046 139.435 230.67 140.12C231.293 140.804 232.082 141.317 232.96 141.61C213.8 142.11 221.87 133.09 209.87 120.26C196.59 106.06 199.47 94.32 199.47 94.32C199.502 91.396 198.586 88.5403 196.86 86.18C194.94 83.72 195.5 80.4 196.11 78.54C197 75.81 199.71 74.85 202.31 74.69C202.77 72 208.31 72.49 208.98 72.94C209.65 73.39 209.73 73.3 210.34 72.94C211.69 72.07 215.09 71.17 218.73 74.11C220.95 75.91 223.33 79.11 223.41 85.99C223.49 93.12 220.08 101.59 231.88 112.42C238.83 118.78 235.5 132.49 247.7 133.24Z" fill="#263238"/>
<path d="M197.89 88.35C196.96 89.6684 196.574 91.2941 196.81 92.89C197.15 95 199.2 95.14 200.69 93.79C202.18 92.44 203.48 90 202.38 88.25C201.28 86.5 199.05 86.75 197.89 88.35Z" fill="#FFB573"/>
<path d="M216.45 173.76C216.45 173.76 212.36 231.17 207.76 269.03C206.377 280.392 202.912 291.403 197.54 301.51L175 344.07L163.44 339.52C163.44 339.52 171.44 299.07 187.03 277.01C187.03 277.01 175.37 211.08 190.63 173.56L216.45 173.76Z" fill="#455A64"/>
<path opacity="0.2" d="M200.73 187.67C200.73 187.67 204.17 213.67 206.05 229.14C199 219.84 193.53 206.86 200.73 187.67Z" fill="black"/>
<path d="M231.52 367.89L240.28 367.05L237.6 347.15L228.84 348L231.52 367.89Z" fill="#FFB573"/>
<path d="M240.87 366L231.03 366.95C230.861 366.962 230.702 367.036 230.584 367.158C230.466 367.28 230.397 367.441 230.39 367.61L230.03 375.38C230.03 375.577 230.072 375.772 230.153 375.952C230.233 376.132 230.351 376.293 230.499 376.424C230.646 376.556 230.819 376.654 231.007 376.714C231.195 376.773 231.394 376.793 231.59 376.77C235.01 376.39 236.59 376.03 240.97 375.61C243.63 375.35 247.55 375.25 251.23 374.9C254.91 374.55 254.74 370.95 253.23 370.77C246.23 369.98 244.94 368.08 242.44 366.39C241.978 366.081 241.423 365.944 240.87 366Z" fill="#1E2772"/>
<path d="M225.11 173.75C225.11 173.75 236.32 242.26 238.47 282.84L238.88 355.54L229.81 357.31C229.81 357.31 216.68 310.93 215.16 284.12C211.16 213 187.99 212.88 201.93 173.62L225.11 173.75Z" fill="#455A64"/>
<path d="M161 100.25H161.57C161.434 100.25 161.3 100.277 161.175 100.331C161.051 100.384 160.938 100.462 160.845 100.56C160.751 100.659 160.679 100.775 160.631 100.902C160.584 101.029 160.563 101.165 160.57 101.3L161.49 118.71C161.517 118.983 161.645 119.237 161.848 119.421C162.051 119.606 162.315 119.709 162.59 119.71H162C161.726 119.707 161.463 119.603 161.26 119.419C161.057 119.235 160.929 118.982 160.9 118.71L160 101.3C159.993 101.165 160.014 101.029 160.061 100.902C160.109 100.775 160.181 100.659 160.275 100.56C160.368 100.462 160.481 100.384 160.605 100.331C160.73 100.277 160.864 100.25 161 100.25Z" fill="#1E2772"/>
<path opacity="0.1" d="M161 100.25H161.57C161.434 100.25 161.3 100.277 161.175 100.331C161.051 100.384 160.938 100.462 160.845 100.56C160.751 100.659 160.679 100.775 160.631 100.902C160.584 101.029 160.563 101.165 160.57 101.3L161.49 118.71C161.517 118.983 161.645 119.237 161.848 119.421C162.051 119.606 162.315 119.709 162.59 119.71H162C161.726 119.707 161.463 119.603 161.26 119.419C161.057 119.235 160.929 118.982 160.9 118.71L160 101.3C159.993 101.165 160.014 101.029 160.061 100.902C160.109 100.775 160.181 100.659 160.275 100.56C160.368 100.462 160.481 100.384 160.605 100.331C160.73 100.277 160.864 100.25 161 100.25Z" fill="white"/>
<path d="M162.15 119.76H169.15C169.415 119.76 169.669 119.655 169.857 119.467C170.045 119.28 170.15 119.025 170.15 118.76L169.24 101.35C169.222 101.069 169.099 100.804 168.895 100.61C168.692 100.415 168.422 100.304 168.14 100.3H161.14C161.004 100.3 160.87 100.327 160.745 100.381C160.621 100.434 160.508 100.512 160.415 100.61C160.321 100.709 160.248 100.825 160.201 100.952C160.154 101.079 160.133 101.215 160.14 101.35L161.05 118.76C161.079 119.032 161.207 119.285 161.41 119.469C161.613 119.653 161.876 119.757 162.15 119.76Z" fill="#1E2772"/>
<path opacity="0.4" d="M162.15 119.76H169.15C169.415 119.76 169.669 119.655 169.857 119.467C170.045 119.28 170.15 119.025 170.15 118.76L169.24 101.35C169.222 101.069 169.099 100.804 168.895 100.61C168.692 100.415 168.422 100.304 168.14 100.3H161.14C161.004 100.3 160.87 100.327 160.745 100.381C160.621 100.434 160.508 100.512 160.415 100.61C160.321 100.709 160.248 100.825 160.201 100.952C160.154 101.079 160.133 101.215 160.14 101.35L161.05 118.76C161.079 119.032 161.207 119.285 161.41 119.469C161.613 119.653 161.876 119.757 162.15 119.76Z" fill="white"/>
<path d="M169.73 118.35C169.735 118.437 169.723 118.525 169.694 118.607C169.665 118.69 169.619 118.766 169.56 118.83C169.434 118.952 169.265 119.021 169.09 119.02H162.28C162.089 119.018 161.907 118.943 161.77 118.811C161.632 118.679 161.55 118.5 161.54 118.31L160.65 101.42C160.643 101.334 160.655 101.248 160.685 101.167C160.714 101.086 160.76 101.012 160.82 100.95C160.88 100.886 160.953 100.835 161.034 100.8C161.115 100.766 161.202 100.749 161.29 100.75H168.1C168.29 100.752 168.473 100.827 168.61 100.959C168.748 101.091 168.83 101.27 168.84 101.46L168.9 102.67L169.73 118.35Z" fill="#263238"/>
<g opacity="0.1">
<path d="M168.9 102.67L166.64 119H163.93L166.49 100.73H168.1C168.291 100.732 168.473 100.807 168.61 100.939C168.748 101.071 168.83 101.25 168.84 101.44L168.9 102.67Z" fill="white"/>
<path d="M162.95 119.02H162.34L164.9 100.75H165.51L162.95 119.02Z" fill="white"/>
</g>
<path d="M188.52 175.7C183.428 185.735 180.692 196.799 180.52 208.05C197.52 221.24 213.35 205.79 232.81 208.4C232.13 199.61 229.14 183.4 225.6 175.28C212.71 175.83 200.67 174.54 188.52 175.7Z" fill="#1E2772"/>
<path d="M190.29 172.13C190.29 172.13 188.92 175.66 189.29 175.66H225C225.31 175.66 225.56 175.51 225.58 175.31L225.89 172.31C225.89 172.1 225.64 171.92 225.31 171.92H190.85C190.747 171.906 190.641 171.918 190.543 171.954C190.446 171.991 190.359 172.051 190.29 172.13Z" fill="white"/>
<path d="M195.32 176H194.4C194.21 176 194.07 175.9 194.08 175.78L194.52 171.78C194.52 171.66 194.69 171.57 194.87 171.57H195.8C195.98 171.57 196.12 171.66 196.11 171.78L195.68 175.78C195.652 175.851 195.602 175.911 195.537 175.95C195.472 175.99 195.396 176.007 195.32 176Z" fill="#1E2772"/>
<path d="M217.68 176H216.76C216.58 176 216.44 175.9 216.45 175.78L216.88 171.78C216.88 171.66 217.05 171.57 217.24 171.57H218.16C218.34 171.57 218.48 171.66 218.47 171.78L218.04 175.78C218 175.86 217.87 176 217.68 176Z" fill="#1E2772"/>
</svg>
